<svg xmlns="http://www.w3.org/2000/svg" width="130" height="130">
    <path fill="#FFF" fill-rule="evenodd" d="M130.001 65c0-35.837-29.165-65.001-65.002-65.001C29.163-.001-.002 29.163-.002 65c0 18.927 8.137 35.999 21.099 47.885l-.059.059 2.101 1.775c.139.116.289.207.428.325a70.55 70.55 0 0 0 3.46 2.654c.381.277.762.552 1.155.83a66.027 66.027 0 0 0 3.888 2.47c.29.174.579.334.866.508a62.918 62.918 0 0 0 4.444 2.308c.115.059.221.103.337.162a65.46 65.46 0 0 0 15.718 4.976c.151.02.29.044.438.068 1.707.301 3.439.532 5.194.691.206.024.428.036.635.059 1.743.139 3.51.231 5.297.231 1.767 0 3.519-.092 5.251-.231.221-.023.44-.035.659-.047a68.476 68.476 0 0 0 5.146-.679c.151-.024.302-.06.453-.083a64.048 64.048 0 0 0 15.488-4.858c.183-.079.369-.162.54-.242a66.823 66.823 0 0 0 4.284-2.216c.346-.198.692-.393 1.037-.6 1.271-.75 2.53-1.524 3.741-2.366.437-.29.866-.612 1.291-.925a53.446 53.446 0 0 0 3.046-2.319c.222-.172.464-.334.683-.509l2.157-1.811-.068-.056C121.784 101.17 130.001 84.03 130.001 65zM4.732 65c0-33.24 27.028-60.268 60.267-60.268 33.239 0 60.268 27.028 60.268 60.268 0 17.91-7.859 34.013-20.301 45.057-.691-.472-1.383-.913-2.112-1.27L82.842 98.782a5.25 5.25 0 0 1-2.907-4.709v-6.994c.461-.567.957-1.214 1.454-1.929 2.597-3.658 4.674-7.732 6.186-12.105a8.577 8.577 0 0 0 4.929-7.779v-8.38c0-2.044-.751-4.027-2.089-5.599V40.255c.115-1.223.552-8.149-4.456-13.86-4.352-4.964-11.405-7.493-20.96-7.493-9.555 0-16.607 2.529-20.959 7.493-5.008 5.711-4.571 12.637-4.456 13.86v11.032a8.634 8.634 0 0 0-2.089 5.599v8.38a8.602 8.602 0 0 0 3.165 6.671c1.914 7.502 5.85 13.18 7.315 15.095v6.843a5.293 5.293 0 0 1-2.745 4.63l-18.699 10.19c-.588.322-1.188.703-1.776 1.132C12.476 98.782 4.732 82.786 4.732 65zm95.631 48.762c-.83.6-1.675 1.188-2.529 1.744l-1.176.762a64.265 64.265 0 0 1-3.416 1.962c-.254.127-.508.254-.762.39a60.059 60.059 0 0 1-8.252 3.486 59.336 59.336 0 0 1-4.801 1.409h-.012a64.13 64.13 0 0 1-4.639.958.417.417 0 0 0-.127.023 71.642 71.642 0 0 1-4.432.541c-.266.024-.531.036-.797.059a63.13 63.13 0 0 1-4.421.171c-1.5 0-2.99-.068-4.479-.183a15.379 15.379 0 0 1-.771-.059 64.208 64.208 0 0 1-4.467-.54l-.195-.036a61.31 61.31 0 0 1-9.201-2.296c-.091-.035-.183-.071-.275-.103a55.105 55.105 0 0 1-4.399-1.687c-.012 0-.024 0-.033-.012a61.313 61.313 0 0 1-4.029-1.926c-.172-.092-.346-.175-.521-.266a61.732 61.732 0 0 1-3.554-2.066 26.144 26.144 0 0 1-1.025-.67 52.342 52.342 0 0 1-3.164-2.204c-.104-.08-.207-.16-.311-.243l.219-.127 18.696-10.19a10.012 10.012 0 0 0 5.207-8.784V85.36l-.544-.659c-.056-.059-5.159-6.267-7.097-14.693l-.207-.934-.809-.52c-1.141-.739-1.824-1.962-1.824-3.288v-8.38c0-1.096.473-2.124 1.315-2.898l.786-.703V40.128l-.023-.31c0-.059-.704-5.75 3.3-10.309 3.418-3.9 9.28-5.874 17.405-5.874 8.102 0 13.943 1.962 17.359 5.83 4.003 4.511 3.347 10.305 3.347 10.353l-.023 13.479.786.703c.842.762 1.314 1.79 1.314 2.886v8.38c0 1.684-1.155 3.22-2.792 3.728l-1.179.358-.381 1.176c-1.394 4.328-3.38 8.332-5.897 11.889a30.872 30.872 0 0 1-1.743 2.248l-.577.659v8.749a9.95 9.95 0 0 0 5.517 8.943l20.014 10.008c.127.056.254.127.381.195-.254.186-.508.357-.762.543z"/>
</svg>
