<svg xmlns="http://www.w3.org/2000/svg" width="192" height="193">
    <defs>
        <filter id="a" width="192" height="193" x="0" y="0" filterUnits="userSpaceOnUse">
            <feOffset dy="3" in="SourceAlpha"/>
            <feGaussianBlur result="blurOut" stdDeviation="4.243"/>
            <feFlood flood-color="#033641" result="floodOut"/>
            <feComposite in="floodOut" in2="blurOut" operator="atop"/>
            <feComponentTransfer>
                <feFuncA slope=".65" type="linear"/>
            </feComponentTransfer>
            <feMerge>
                <feMergeNode/>
                <feMergeNode in="SourceGraphic"/>
            </feMerge>
        </filter>
    </defs>
    <path fill="#FFF" fill-rule="evenodd" d="M158.535 89.009c1.208 1.542 2.391 2.471 2.654 3.613.152.66-1.181 1.664-1.845 2.513-1.094-1.191-2.249-2.337-3.184-3.642-.093-.129 1.158-1.227 2.375-2.484zm-7.712 13.203c.603-.579 1.336-1.733 1.783-1.631 1.337.307 2.563 1.105 4.577 2.067l-3.009 3.004-3.351-3.44zm-10.626 6.154c.191.388-1.375 1.646-2.138 2.506-.981-1.139-2.087-2.202-2.852-3.472-.179-.298.792-1.293 1.659-2.617 1.474 1.486 2.735 2.371 3.331 3.583zm-13.692-13.86c-.95-1.14-1.568-2.558-2.317-3.867l1.113-1.088c1.477.645 3.096 1.105 4.333 2.062.323.249-.382 2.15-.959 3.077-.191.306-1.82.236-2.17-.184zm.444 11.084c-2.426.313-4.958-.205-8.043-.436 2.335-3.892 6.643-5.673 9.414-4.496.504.214 1.161 1.312 1.003 1.626-.624 1.239-1.433 3.184-2.374 3.306zm-44.15-15.545c2.116.134 4.581-.581 4.771 2.44.052.827-1.609 2.607-2.107 2.478-2.138-.55-3.552-1.986-2.664-4.918zm9.082 15.854c-3.035-.456-6.143-.431-9.821-.663 1.68-3.785 4.162-4.672 6.915-4.655 2.188.014 3.606-.428 4.426-2.696.359-.992 1.679-1.634 2.562-2.435.719 1.117 1.449 2.226 2.144 3.358.098.159.033.424.027.64-.17 6.306 1.393 7.602-6.253 6.451zm3.841-63.176c.865.264 1.906 1.235 2.127 2.102.804 3.152.14 5.977-2.934 8.212-2.496-2.804-2.548-5.673-1.216-8.611.348-.767 1.545-1.849 2.023-1.703zm-11.507 5.078c1.251.465 2.699 1.152 3.341 2.206.337.553-.842 2.036-1.775 4.04-1.51-2.001-2.549-3.128-3.207-4.447-.142-.285 1.328-1.914 1.641-1.799zm85.193 32.28c-2.531.372-2.621 1.746-2.254 3.839.771.231 1.574.649 2.393.683 2.094.089 2.398 1.353 2.372 3.069-.052 3.365-.095 6.734.016 10.097.068 2.073-.643 3.179-2.737 3.697-.856.212-1.476 1.381-2.204 2.115.749.69 1.43 1.861 2.258 1.977 2.094.293 2.691 1.317 2.676 3.271-.059 7.383.143 14.773-.125 22.147-.082 2.243-1.363 4.442-2.094 6.662l-1.445-.094c-.518-1.311-1.214-2.585-1.505-3.945-.292-1.358-.176-2.803-.244-4.209-.183-3.832 1.016-8.415-5.532-8.789l.211-.852 5.032-3.783c.182-4.634.044-4.793-4.896-4.374-.032-2.864-.065-5.728-.095-8.593-.008-.76.031-1.522-.017-2.279-.323-5.106-.329-5.106 4.724-6.414.482-3.759.43-3.811-4.957-4.503 0-1.282-.031-2.637.008-3.991.05-1.734.237-3.466.226-5.198-.037-5.662-.062-5.661 5.009-7.741 0-.49.084-1.036-.02-1.544-.148-.721-.435-1.413-.727-2.318-4.382 0-8.702-.069-13.015.069-.695.022-1.495.856-2.009 1.505-.878 1.108-1.568 2.366-2.89 4.42l-2.514-5.798h-3.957c-.245 1.133-.344 2.333-.786 3.388-.336.803-1.076 1.995-1.691 2.03-3.71.211-3.43 2.865-3.509 5.33-.047 1.492-.008 2.987-.008 4.459 3.082.88 4.879.421 4.861-3.016-.007-1.391.094-2.917.666-4.135.532-1.132 1.758-1.935 2.678-2.883.744 1.08 1.861 2.069 2.15 3.259.529 2.177.568 4.473.855 7.125 2.34 0 4.477-.089 6.601.04.979.059 1.933.544 2.898.836-.487 1.268-.731 3.443-1.501 3.65-3.596.965-2.824 3.986-3.607 6.345-.577 1.737-1.584 3.33-2.399 4.988l-1.086-.085-2.221-5.106h-3.396c-.946 1.932-1.588 4.985-2.695 5.165-2.838.463-5.883-.35-8.845-.653l-.454-1.179 5.161-4.088c-.442-3.523-.044-7.776-4.898-9.581-.558-.208-.819-1.207-1.229-1.832-1.588-2.421-3.672-3.93-6.718-3.761-.969.054-1.953.028-2.919-.07-4.334-.439-4.521-.28-4.571 4.387.641.224 1.325.501 2.03.701.718.204 1.458.332 2.641.593 0 2.871.11 5.777-.076 8.664-.047.726-.997 1.944-1.606 1.992-3.747.293-3.455 3.064-3.283 5.434.155 2.131-.343 5.185 3.567 4.736.358-.041 1.24.928 1.154 1.185-.424 1.279-.779 2.879-1.734 3.624-2.602 2.031-2.717 1.883-2.738 5.381l4.278.574c.152 4-.459 4.692-4.216 5.267l-3.484 5.405c-4.276-5.042-.873-10.992-3.462-15.875-2.411-.876-3.473-.033-3.784 2.735-.3 2.685-.397 5.704-3.913 7.514l-2.14-5.047c-3.213-1.256-4.209.6-4.624 3.487-.735 5.127.645 6.861 5.634 6.862.541 0 1.083-.02 1.624.003 2.577.106 5.84-.668 7.509.624 1.305 1.011.83 4.596.775 7.029-.051 2.241 1.454 2.549 2.895 2.678 2.022.182 2.536 1.228 2.457 3.006-.062 1.409-.127 2.835.017 4.232.266 2.566-.5 4.16-3.298 4.511-.604.076-1.533.96-1.58 1.532-.243 2.998-2.239 3.675-5.332 3.842-.123 4.016-.388 7.977-.312 11.931.047 2.45-.808 3.448-3.199 3.09-2.414-.362-4.824-.747-7.236-1.121l-.329-1.059 5.292-3.939c.333-3.351-1.08-5.633-5.364-5.739l.103-.916 5.053-3.779c-.423-4.203-.423-4.203 5.856-6.221-.387-3.299-.529-6.764-1.259-10.1-.741-3.387-5.007-5.044-9.783-4.224-5.165.888-6.017-.066-5.345-5.259.314-2.428-.07-4.939.049-7.404.164-3.399-1.857-3.636-4.393-3.29-.107.014-.214.037-.322.043-1.897.095-4.818 2.125-5.386-.528-.596-2.786.312-6.134 1.342-8.949.692-1.889 3.048-1.238 3.468 1.253.449 2.659 1.853 2.954 4.032 2.894 3.879-.106 7.762-.03 11.255-.03.447-1.891.344-3.931 1.299-4.793.924-.834 2.933-.514 4.471-.593 1.493-.077 2.992-.017 5.031-.017V90.154h-4.155l-3.646 6.001-2.787-6.312c-1.915.229-4.144.424-6.348.778-3.042.488-3.992-.232-4.019-3.325a97.826 97.826 0 0 1 .086-4.845c.11-2.701-1.205-3.449-4.161-2.589-.204 2.338-.543 4.879-.609 7.428-.048 1.865-.447 3.267-2.548 3.423-1.972.146-2.394 1.367-2.58 3.072-.281 2.577-.716 5.167-4.189 7.14l-2.387-10.803h-3.668l-3.241 5.23-1.217-.056c-.703-2.824-1.857-5.633-1.95-8.476-.063-1.894 1.817-2.922 4.083-2.533 2.175.373 4.408.41 6.686.601-.482-5.165-1.052-4.568 5.009-6.575-.389-3.757.947-4.923 4.802-4.408 1.903.255 3.844.233 5.776.336.047-4.414.047-4.414 5.286-6.591 1.156-3.986-1.921-4.477-4.568-5.168 1.645-3.34 5.986-5.279 9.046-4.08.621.243 1.292 1.191 1.361 1.874.326 3.232 2.059 3.947 5.576 2.817-.387-6.889-.594-14.014-1.269-21.093-.319-3.336-5.118-5.859-8.367-4.798-.658.215-1.181 1.047-1.618 1.694-.763 1.131-1.411 2.34-2.601 4.35-1.657-4.223-3.846-6.805-8.004-6.181.361-2.722.587-5.474 1.188-8.142.185-.821 1.434-1.924 2.207-1.933.697-.008 1.952 1.254 2.023 2.041.342 3.8 2.869 2.97 5.298 2.843-.09-1.319-.601-2.743-.137-3.68.465-.936 1.841-1.552 2.944-1.98.592-.231 1.451.227 2.189.375 1.899.382 4.533.155 5.491 1.317.972 1.179.296 3.731.327 5.682.017 1.063.003 2.127.003 3.399h10.157c.194-4.55-.046-4.815-5.011-5.069l-.521-10.472c-4.749 0-9.063-.087-13.368.08-.773.03-1.624 1.008-2.23 1.726-.848 1.007-1.501 2.18-2.619 3.854-2.024-3.435-2.544-7.652-7.934-6.378l.312-1.591c1.75-.993 3.478-2.798 5.253-2.845 10.362-.273 20.734-.134 32.311-.134-1.187 2.11-1.707 4.429-2.841 4.786-3.26 1.026-2.208 3.382-2.78 5.345 2.963.984 4.645.352 5.638-2.409.345-.958 1.745-1.534 2.663-2.285.661 1.032 1.688 1.994 1.898 3.111.336 1.785.284 3.69.079 5.509-.088.787-.956 2.115-1.485 2.122-3.538.05-3.353 2.684-3.683 4.967a11.031 11.031 0 0 0-.076 2.599c.248 2.631-1.138 3.143-3.378 2.869-1.913-.234-3.85-.274-6.57-.452 0 3.059-.108 5.796.072 8.514.048.729.973 1.972 1.497 1.973 1.002.003 2.023-.682 2.995-1.165.23-.114.244-.606.451-.842.871-.994 1.778-1.957 2.671-2.93.744 1.079 1.838 2.063 2.164 3.257.85 3.112 3.116 1.312 4.729 1.828.643-3.991.643-3.991-4.222-6.632 1.4-3.185 6.396-5.314 9.141-3.633.728.446 1.011 2.01 1.078 3.087.252 4.057.331 8.125.486 12.473 7.607 0 14.518.113 21.422-.055 2.743-.067 4.571.329 4.945 3.528.082.703 1.425 1.605 2.316 1.788 1.455.3 3.093.376 4.507-.004 1.248-.334 2.341-1.36 3.418-2.19 1.072-.827 2.039-1.79 3.052-2.693.654 1.26 1.815 2.496 1.873 3.783.227 4.984.233 9.991-.004 14.974-.046.979-1.436 2.562-2.377 2.7zM97.43 75.586c-.105-.653-1.135-1.58-1.77-1.606-.676-.028-1.909.785-1.999 1.37-.468 3.028-.647 6.101-.937 9.278h5.683c-.328-3.288-.516-6.187-.977-9.042zm6.111 8.96h5.121l-.897-4.85h-3.585l-.639 4.85zm9.508-15.576c-1.569 0-2.75.103-3.908-.017-5.168-.535-5.21-.519-5.357 5.002h10.067l-.802-4.985zm19.936-5.135c-1.828-.747-3.45-.083-4.06 2.287-.256.994-1.35 1.77-2.064 2.645l-1.23-.038c-.514-2.615-.888-5.27-1.614-7.823-.281-.988-1.361-1.747-2.077-2.61-.765.825-2.103 1.591-2.196 2.486-.401 3.857-.498 7.751-.538 11.634-.006.573.866 1.627 1.376 1.655 2.938.16 5.89.078 9.208.078-2.553-5.907 2.472-5.139 5.399-6.916-.776-1.273-1.221-2.997-2.204-3.398zm28.343 47.872l-.122-.01.015-.096.109-.009.001.118-.003-.003zm-5.595 4.755c-2.339.058-4.668.489-7.007.571-1.07.037-2.153-.323-3.234-.527.224-2.799.308-5.617.783-8.368.138-.802 1.416-1.407 2.172-2.102.746.83 2.061 1.615 2.13 2.498.191 2.431 1.506 2.653 3.448 2.667 2.394.017 4.786.311 7.181.496-.668 4.373-1.093 4.657-5.473 4.765zm-10.337.112l-.018-.096.005.005c.036.006.073.016.109.023l-.005.071-.091-.003zm11.042 5.247c-.91 1.977-1.208 3.698-2.226 4.626-2.674 2.442-2.799 2.304-3.256 5.825h9.929c.399 3.539-.873 5.316-4.134 5.587-.385 2.987-.591 6.081-4.684 6.122-.305.003-.855.758-.862 1.171-.055 3.203-2.391 3.39-4.698 4.223-1.559.563-2.619 2.517-4.39 4.356l-2.312-5.267c-3.737-.809-4.205-.592-4.548 3.49-.263 3.125-.043 6.289-.21 9.427-.051.966-.565 2.661-1.046 2.728-3.255.452-5.458 2.3-7.328 5.671-.887-1.651-1.721-2.581-1.865-3.608-.265-1.874-1.243-2.185-2.877-2.208-1.951-.028-2.383 1.016-2.422 2.632-.056 2.344-1.284 3.196-3.583 2.979-1.259-.118-2.574.071-3.832.297-2.876.516-3.985-.394-4.017-3.381-.037-3.529-.28-7.068-.067-10.581.058-.941 1.302-2.292 2.268-2.593 2.007-.626 3.826-1.044 4.588-3.402.225-.697 1.465-1.579 2.113-1.486.718.103 1.346 1.183 1.912 1.915.54.698.842 2.043 1.435 2.16 3.242.644 5.198 2.08 4.001 5.911h5.18c-.182-1.554-.255-2.93-.517-4.269-.827-4.244-2.66-5.916-7.465-5.797-2.445.06-2.76-.943-2.769-2.784-.001-.217.005-.434.01-.651.156-6.12.156-6.12-5.147-9.152l5.318-4.016c-1.182-2.931-.218-4.784 3.312-5.385.747-.127 1.683-1.563 1.806-2.493.381-2.89.134-5.883.701-8.722.275-1.376 1.823-2.496 2.795-3.732.751 1.305 1.643 2.552 2.201 3.935.347.86.188 1.926.254 2.899.204 2.998 1.549 4.306 4.594 3.206-.599-4.936.16-5.667 5.086-5.187 1.894.185 3.803.209 5.71.307l.998 5.247h10.044zm-11.391 5.244h-14.728v15.755l2.534.001 12.194-.001v-15.755zm-8.827 5.302c1.331.209 3.236.356 3.743 1.226.52.892-.343 2.595-.601 3.943l-1.263.37c-.994-1.32-2.065-2.595-2.909-4.006-.146-.243.752-1.577 1.03-1.533zM81.834 37.189l-.083-.001c-.013-.039-.019-.075-.032-.114.045-.007.082-.003.127-.009-.006.04-.01.08-.015.121l.003.003zm-3.029 10.679c-.557-1.341-.871-2.679-1.6-3.727-1.547-2.223-2.911-4.946-5.075-6.283-3.54-2.186-4.969-.845-5.342 4.345.599.083 1.24.077 1.814.271.988.335 1.935.794 2.899 1.201-.758 1.317-1.266 3.437-2.331 3.771-1.802.565-2.202 1.482-2.211 2.977-.022 3.559-.137 7.129.128 10.669.066.879 1.432 1.66 2.201 2.487.716-.872 1.88-1.661 2.059-2.632.408-2.221.336-4.531.454-6.805.034-.65-.168-1.421.113-1.929.828-1.498 1.844-2.892 2.786-4.327.787 1.388 1.759 2.709 2.303 4.187.437 1.187.225 2.6.553 3.846.197.746.866 1.94 1.342 1.95 4.068.08 3.544 2.915 3.492 5.51-.004.218 0 .435 0 .652-.001 5.555-.259 5.775-5.681 4.772-2.585-.478-4.934-.665-5.793 2.74-.236.936-1.214 1.684-1.89 2.568-2.362-3.419-3.908-7.582-6.882-9.421-3.005-1.857-7.426-1.412-11.657-2.039 2.201-4.479 5.956-4.347 9.94-4.514.254-2.011.746-4.016.714-6.014-.093-5.83-.371-11.657-.628-17.483-.092-2.08 1.784-3.475 4.218-3.156 2.2.288 4.42.425 6.575.624.783-4.137-.552-6.337-4.863-6.399.562-1.086.721-1.988 1.222-2.261 2.463-1.349 4.075-3.263 5.211-5.871.821-1.885 3.342-1.749 3.556.14.406 3.565 2.651 3.919 6.458 3.898-1.278 2.077-1.851 3.889-3.085 4.819-2.177 1.641-3.115 4.196-2.38 8.092.497 2.637 2.371 2.644 4.326 2.662 1.444 4.415.612 7.875-2.946 10.68zm87.013 5.1c-4.109.051-8.22.011-12.33.009-4.218-.002-8.437.051-12.654-.017-3.896-.063-5.719-1.89-5.745-5.837-.056-8.352-.053-16.705-.003-25.058.024-4.061 1.858-5.954 5.988-5.999 8.219-.089 16.44-.088 24.659-.002 4.249.044 6.106 1.936 6.147 6.235.078 8.244.086 16.489-.011 24.732-.048 4.111-1.956 5.885-6.051 5.937zm.677-25.939c-.101-3.594-1.852-5.488-5.329-5.554-5.184-.097-10.374-.1-15.558.007-3.301.068-5.19 2.019-5.241 5.33a463.872 463.872 0 0 0 .005 15.605c.059 3.259 2.041 5.196 5.33 5.248 5.185.082 10.374.088 15.559-.004 3.265-.057 5.101-1.991 5.224-5.353.092-2.489.018-4.984.024-7.477 0-2.601.059-5.203-.014-7.802zm-13.067 15.414c-4.284-.008-7.821-3.532-7.853-7.825-.034-4.493 3.506-7.967 8.041-7.893 4.422.072 7.667 3.444 7.629 7.926-.038 4.387-3.462 7.8-7.817 7.792zM61.342 17.708c-.092-.123 1.198-1.79 1.628-1.699 1.373.29 2.644 1.071 4.862 2.073-1.712 1.503-3.07 3.041-3.335 2.871-1.246-.803-2.251-2.03-3.155-3.245zm-5.406 29.536c-.055 3.747-1.868 5.671-5.552 5.702-8.546.074-17.094.07-25.641.006-3.466-.025-5.573-1.902-5.631-5.377a779.518 779.518 0 0 1 .004-26.041c.06-3.494 2.062-5.39 5.614-5.44 8.546-.12 17.095-.124 25.64-.001 3.715.054 5.513 2.061 5.568 5.759.062 4.231.014 8.464.013 12.696 0 4.232.048 8.465-.015 12.696zm-5.259-20.625c-.071-3.107-2.036-5.058-5.137-5.125-5.293-.114-10.591-.084-15.886-.012-3.048.041-4.988 1.732-5.09 4.764a250.279 250.279 0 0 0-.006 16.575c.1 3.069 2.191 4.77 5.38 4.854 2.592.067 5.187.013 7.781.009 2.594 0 5.191.08 7.781-.021 3.056-.119 5.102-2.043 5.176-5.112.127-5.308.123-10.624.001-15.932zM37.614 42.443c-4.376.026-7.799-3.355-7.853-7.757-.056-4.477 3.19-7.875 7.602-7.959 4.503-.086 8.144 3.439 8.12 7.864-.023 4.24-3.619 7.827-7.869 7.852zm-12.502 89.9c8.333-.041 16.667-.046 25 .003 3.901.022 5.771 1.899 5.826 5.776.06 4.232.014 8.466.015 12.699 0 4.125.034 8.25-.009 12.375-.04 3.878-1.865 6.038-5.609 6.094-8.547.129-17.1.132-25.647-.005-3.584-.058-5.554-2.166-5.6-5.854a943.184 943.184 0 0 1 .009-25.399c.056-3.796 2.168-5.67 6.015-5.689zm-.625 26.081c.088 3.572 1.904 5.381 5.479 5.468 5.078.123 10.163.12 15.24-.007 3.495-.088 5.428-2.063 5.489-5.495a414.33 414.33 0 0 0-.004-15.286c-.066-3.412-2.096-5.382-5.51-5.504-2.483-.089-4.972-.017-7.458-.021-2.486 0-4.974-.047-7.458.011-3.689.086-5.682 1.896-5.775 5.55a304.216 304.216 0 0 0-.003 15.284zm13.058-15.593c4.339-.01 8.064 3.814 7.936 8.148-.128 4.332-3.658 7.68-8.04 7.624-4.42-.056-7.703-3.43-7.679-7.892.024-4.377 3.473-7.869 7.783-7.88zM20.951 58.277c1.363.317 2.612 1.128 4.799 2.174-1.794 1.445-3.209 2.937-3.487 2.748-1.223-.831-2.162-2.116-3.041-3.353-.066-.094 1.273-1.675 1.729-1.569zm-1.044 12.685c.379-.798 1.508-1.609 2.354-1.681.557-.046 1.488 1.12 1.792 1.919 1.104 2.898-.15 6.118-3.039 8.093-2.247-2.538-2.505-5.387-1.107-8.331zm-.663 20.393c-.071-.106 1.246-1.151 2.547-2.331 1.14 1.579 2.288 2.554 2.502 3.704.122.656-1.28 1.597-1.996 2.41-1.05-1.239-2.152-2.443-3.053-3.783zm9.176 14.681c.511.285 1.005 1.665.754 2.06-.733 1.155-1.765 2.806-2.827 2.923-2.249.248-4.591-.353-7.291-.65 1.891-3.747 6.795-5.767 9.364-4.333zm21.775-32.4c2.816-5.167 6.562-4.819 11.201-4.43-.749 1.704-1.177 4.158-2.012 4.306-2.764.491-5.675.15-9.189.124zm.649 17.961c-.148-.201.859-1.254 1.733-2.472 1.421 1.264 2.856 1.993 3.255 3.098.244.675-1.103 1.929-1.735 2.923-1.113-1.162-2.31-2.262-3.253-3.549zm-5.682 34.733c2.47-5.408 6.811-4.295 10.451-4.746.125-4.195.125-4.195-5.428-6.816l5.731-4.272-.826-4.475h-3.459c-.86 2.71-.569 6.44-4.975 6.184-.668 3.315-3.573 4.502-5.702 6.533-1.113 1.061-.371 3.946-.778 5.944-.189.925-1.131 2.433-1.715 2.425-5.935-.079-11.867-.4-17.797-.712-.464-.025-.905-.492-1.497-.835 1.484-3.053 3.999-3.84 6.986-3.816 2.779.022 5.559.005 8.23.005.932-4.176-.694-6.143-4.793-6.281 2.193-5.085 6.53-3.988 10.105-4.501.207-5.438-.285-5.843-5.613-4.744-4.159.859-4.463.559-5.02-3.73-.101-.779-1.039-1.592-1.785-2.105-.744-.51-1.733-.663-3.033-1.12 4.155-6.366 10.466-2.94 15.759-4.327l-.582-4.986c-1.958.16-3.766.134-5.499.483-3.979.803-4.857.091-4.696-4.028.2-5.087.38-10.177.48-15.267.025-1.28-.18-2.592-.466-3.847-.604-2.652.523-4.188 3.184-4.078.968.04 1.932.228 2.894.369 2.765.404 4.814-.261 5.701-3.298.213-.728 1.276-1.533 2.051-1.659.542-.088 1.766.874 1.818 1.445.281 3.091 2.13 3.835 4.789 3.717.247-.011.511.359 1.55 1.145-1.331 1.416-2.679 2.674-3.806 4.106-.835 1.061-1.383 2.349-2.283 3.931 3.861.786 6.974 1.729 5.308 6.558h10.379c-.01 4.221-.886 5.073-4.276 5.277-3.818.229-7.621.71-11.425 1.079h.001c.123 1.382.29 2.761.356 4.145.061 1.292.013 2.589.013 4.178 2.904.866 6.848.99 5.01 5.879 2.886.808 5.019.886 6.097-2.373.308-.93 1.559-1.546 2.377-2.305.728 1.094 2.003 2.148 2.085 3.289.28 3.89.048 7.812.181 11.717.175 5.156.448 5.431 4.685 6.405.389 3.44-.19 4.245-3.837 5.336-1.213 5.107-1.215 5.154-6.391 4.916-3.375-.155-6.742-.471-10.539-.745zm-.283-44.832c-.149-5.461-3.551-8.055-9.149-6.806v10.072c2.704 0 4.758-.111 6.79.051.881.07 1.718.682 2.574 1.058-.07-1.46-.175-2.917-.215-4.375zm22.415 79.147c.621-.668 1.571-1.766 2.088-1.625.838.23 1.475 1.291 2.138 2.052.806.924 1.375 2.41 2.357 2.751 2.047.709 2.959-.806 3.7-2.603.387-.939 1.548-1.556 2.36-2.318.769.924 1.5 1.884 2.319 2.761.75.805 1.56 1.564 2.409 2.263.823.677 1.729 1.251 2.598 1.87-1.052 1.178-2.016 3.257-3.172 3.37-4.042.398-8.152.147-12.235.082-2.46-.039-4.922-.127-7.373-.323-1.026-.082-2.024-.502-3.532-.9.872-1.065 1.44-1.791 2.042-2.488 1.42-1.643 2.824-3.302 4.301-4.892zm3.704-58.861c2.164 2.827.74 11.984-2.375 14.455-2.397-2.839-3.027-11.143-1.143-13.962.964-1.442 2.101-2.345 3.518-.493zm-3.276 42.955l-3.22 3.214-3.236-3.293c.662-.623 1.392-1.821 1.97-1.751 1.269.153 2.461.948 4.486 1.83zm-5.541-15.946c.468-.703 1.52-1.545 2.175-1.448.714.106 1.554 1.124 1.859 1.927 1.021 2.696-.061 5.725-2.815 8.182-2.428-2.749-2.937-6.084-1.219-8.661zm33.546 20.137c-1.065.345-2.451 1.495-2.618 2.469-.389 2.273-1.67 2.405-3.452 2.415-5.038.03-10.075.202-15.113.224-.89.003-2.502-.335-2.557-.702-.444-2.922-.959-5.932-.622-8.818.109-.94 2.675-1.598 4.128-2.367.274-.145.594-.201.957-.32 1.192-4.139-1.816-4.627-5.295-5.679l5.582-4.466c.194-2.464.186-5.032-4.047-4.788-.263.015-1.3-3.729-.95-5.522.331-1.699 2.015-3.132 3.104-4.681.511.365 1.408.676 1.469 1.107.393 2.738 2.158 3.563 4.575 4.123.696.162 1.409 1.963 1.435 3.029.139 5.83.066 11.664.066 17.859 2.965 0 5.673.249 8.292-.128.998-.143 1.756-1.762 2.688-2.641.858-.808 1.801-1.525 2.708-2.282.677 1.033 1.698 1.991 1.948 3.12.343 1.552.019 3.241.135 4.86.133 1.865-.702 2.628-2.433 3.188zm-6.399 9.717c1.373.292 2.649 1.042 4.913 2.034-1.751 1.536-3.12 3.07-3.374 2.902-1.219-.802-2.21-2.013-3.069-3.229-.112-.158 1.132-1.791 1.53-1.707zm53.857.405c.767.167 1.624.996 1.986 1.76 1.267 2.681.135 5.922-2.79 8.231-2.274-2.595-2.774-6.401-1.142-8.66.455-.629 1.407-1.449 1.946-1.331zm19.219-19.891c.459-.625 1.457-1.472 1.933-1.325.776.241 1.608 1.103 1.922 1.899 1.124 2.847-.082 6.121-2.795 8.164-2.494-2.627-2.969-6.139-1.06-8.738zm-9.801 14.141c1.809-.73 3.638-.953 4.301-3.269.211-.739 1.746-1.847 2.008-1.687.909.555 1.52 1.598 2.253 2.447.723.837 1.547 2.414 2.167 2.338 1.228-.149 2.425-1.108 3.488-1.926 1.088-.837 1.999-1.905 2.988-2.872.694 1.355 1.849 2.664 1.987 4.073.306 3.114.234 6.287.021 9.416-.064.938-1.065 2.548-1.705 2.583-2.831.155-4.31 1.821-5.591 3.988-.187.317-.699.441-1.888 1.144l-2.379-10.852c-2.297-.692-3.5-.221-3.778 2.571-.286 2.872-.4 6.084-4.185 8.251-.572-2.068-1.21-3.715-1.456-5.419-.368-2.545-.725-5.149-.55-7.691.077-1.118 1.264-2.669 2.319-3.095z" filter="url(#a)"/>
</svg>
